<svg id="图层_1" data-name="图层 1" xmlns="http://www.w3.org/2000/svg" xmlns:xlink="http://www.w3.org/1999/xlink" viewBox="0 0 5442.52 3061.42"><defs><style>.cls-1{fill:#b0e6f6;}.cls-2{fill:#075b7f;}.cls-3{fill:#0678a3;}.cls-4{fill:url(#未命名的渐变_41);}.cls-5{fill:url(#未命名的渐变_24);}.cls-6{opacity:0.8;}.cls-7{fill:#fff;}</style><linearGradient id="未命名的渐变_41" x1="2722.94" y1="1481.9" x2="2734.6" y2="633.71" gradientUnits="userSpaceOnUse"><stop offset="0" stop-color="#6fd3f2"/><stop offset="1" stop-color="#0c94ba"/></linearGradient><linearGradient id="未命名的渐变_24" x1="2734.39" y1="936.5" x2="2705.66" y2="662.16" gradientUnits="userSpaceOnUse"><stop offset="0" stop-color="#fff" stop-opacity="0"/><stop offset="0.05" stop-color="#fff" stop-opacity="0.5"/><stop offset="1" stop-color="#6fd3f2"/></linearGradient></defs><title>画板 45 副本</title><path class="cls-1" d="M2047.45,1348.05c-17.83,26.11-27.42,53.71-27.42,82.28,0,162.29,308.61,293.85,689.3,293.85s689.31-131.56,689.31-293.85c0-28.57-9.6-56.17-27.43-82.28Z"/><path class="cls-2" d="M2039.65,1357.61s140.8-18.63,273-139.9c75.27-69,145.79-184.17,192.37-315.35,119-335.05,308.94-354.75,440-60.93,133.16,298.5,160.77,509.41,462,649.88,45.69-62.62,22-154-60.93-204.78s-203.57-106-259.5-188.42c-25.63-37.78-79.82-137.65-128.05-238.06C2902.77,743.8,2841,632.64,2733.32,632.64c-72.27,0-129.72,61-176.15,144.2-24,42.93-44.37,92.39-63.67,141.09-48.85,123.3-120.89,244.55-166.14,266.21C2228.35,1231.53,2121.73,1240,2039.65,1357.61Z"/><ellipse class="cls-3" cx="2305.36" cy="1134.85" rx="38.92" ry="17.59"/><ellipse class="cls-3" cx="2068.42" cy="1228.5" rx="38.92" ry="17.59"/><ellipse class="cls-3" cx="2299.15" cy="1393.22" rx="38.92" ry="17.59"/><ellipse class="cls-3" cx="2092.68" cy="1433.86" rx="38.92" ry="17.59"/><ellipse class="cls-3" cx="1914.98" cy="1458.4" rx="38.92" ry="17.59"/><ellipse class="cls-3" cx="2206.92" cy="1527.79" rx="38.92" ry="17.59"/><ellipse class="cls-3" cx="2084.78" cy="1605.83" rx="38.92" ry="17.59"/><ellipse class="cls-3" cx="2039.65" cy="1737.93" rx="38.92" ry="17.59"/><ellipse class="cls-3" cx="2312.69" cy="1651.59" rx="38.92" ry="17.59"/><ellipse class="cls-3" cx="2563.16" cy="1616.42" rx="38.92" ry="17.59"/><ellipse class="cls-3" cx="2785.43" cy="1562.96" rx="38.92" ry="17.59"/><ellipse class="cls-3" cx="2863.28" cy="1681.43" rx="38.92" ry="17.59"/><ellipse class="cls-3" cx="2729.02" cy="1781.84" rx="38.92" ry="17.59"/><ellipse class="cls-3" cx="2467.26" cy="1755.52" rx="38.92" ry="17.59"/><ellipse class="cls-3" cx="2245.84" cy="1790.69" rx="38.92" ry="17.59"/><ellipse class="cls-3" cx="2594.47" cy="1851.62" rx="38.92" ry="17.59"/><ellipse class="cls-3" cx="2962.28" cy="1799.43" rx="38.92" ry="17.59"/><ellipse class="cls-3" cx="3054.8" cy="1623.41" rx="38.92" ry="17.59"/><ellipse class="cls-3" cx="2956.64" cy="1475.99" rx="38.92" ry="17.59"/><ellipse class="cls-3" cx="3243.22" cy="1527.79" rx="38.92" ry="17.59"/><ellipse class="cls-3" cx="3421.48" cy="1580.55" rx="38.92" ry="17.59"/><ellipse class="cls-3" cx="3220.65" cy="1720.35" rx="38.92" ry="17.59"/><ellipse class="cls-3" cx="3152.96" cy="1834.03" rx="38.92" ry="17.59"/><ellipse class="cls-3" cx="3412.46" cy="1706.6" rx="38.92" ry="17.59"/><ellipse class="cls-3" cx="3527.54" cy="1500.13" rx="38.92" ry="17.59"/><ellipse class="cls-3" cx="3527.54" cy="1358.05" rx="38.92" ry="17.59"/><ellipse class="cls-3" cx="3303.3" cy="1209.97" rx="38.92" ry="17.59"/><ellipse class="cls-3" cx="3181.73" cy="1125.35" rx="38.92" ry="17.59"/><ellipse class="cls-3" cx="2394.77" cy="1527.79" rx="38.92" ry="17.59"/><ellipse class="cls-3" cx="2535.24" cy="1458.4" rx="38.92" ry="17.59"/><ellipse class="cls-2" cx="2729.5" cy="1429.28" rx="17.59" ry="150.06" transform="translate(1022.81 3994.48) rotate(-84)"/><path class="cls-4" d="M3407.8,1491.31c-301.24-140.47-324.73-355.65-462-652.27-135.31-292.36-324.58-272.92-440,60.92-45.49,131.56-117.09,246.32-192.37,315.35-132.23,121.27-273.74,142.3-273.74,142.3Z"/><path class="cls-2" d="M2679.65,1423.05c-3.24-3.94-4.54-11.63-7.75-15.59-2.4-3-1.1-9.23,2.23-11,2.94,2.16,5.82,4.39,8.85,6.42.66.44,1.82.16,2.75.22a8.32,8.32,0,0,0-1-2.38c-.73-.86-1.94-1.33-2.6-2.23-1.33-1.82-2.44-3.82-3.75-5.94,4.08-.56,6.79,1.32,9.48,3.23,3.05,2.17,6.07,4.39,9.13,6.55a4.33,4.33,0,0,0,1.33.34l.64-.6c-1.54-1.77-3-3.66-4.66-5.29-1.47-1.43-3.37-2.43-4.83-3.87a28.09,28.09,0,0,0-14.24-7.7c-1.52-.32-2.8-1.73-4.19-2.64l.44-.94c3.66-.27,7.35-.33,11-.87,14.28-2.13,28.37.27,42.5,1.67a54.24,54.24,0,0,1,12,2.17,55,55,0,0,1,11.33,5.71c3.38,2.11,6.38,4.83,9.58,7.23.49.37,1.46.87,1.68.68a2.55,2.55,0,0,0,.89-1.87c-.19-2.79-.57-5.56-.86-8.34-.37-3.54-.72-7.09-1.09-10.63a43.36,43.36,0,0,1-.64-6.87c.11-2,.46-4.39,1.61-5.93,2.32-3.13-.27-5.54-.8-8.07-.87-4.17-2.64-8.18-4.23-12.17-1.43-3.61-3.29-7-4.67-10.68-1.71-4.51-3.17-9.12-4.63-13.72-1.27-4-2.41-8-3.56-12a29.56,29.56,0,0,1-1-4.73c-.06-.52.66-1.14,1-1.74,4.32,6,6.43,13.4,13.52,16.91a94.36,94.36,0,0,1-4.15-9.53c-.8-2.53-.66-5.34-1.22-8a14.58,14.58,0,0,0-1.89-4.3c-3.62-5.94-7.31-11.83-11-17.71a27.1,27.1,0,0,0-2.76-3.84c-3.08-3.44-3-7.78-3.62-12-.51-3.59-1-7.19-1.45-10.79-.4-3.13-.73-6.27-1.18-9.4a7.74,7.74,0,0,1,.85-4.23c1-2.44.52-5.49.41-8.28,0-1.5-.84-3-.88-4.47a3.43,3.43,0,0,1,1.4-2.28c2.11-1.64,1.83-4-.4-5.42-1.8-1.18-3.85-2.3-3.79-5.22,0-2.43-3.56-3.7-6.85-2.51-2.31.84-4.53,1.91-7,2.62,2.47-2.89,4.87-5.89,9.81-6.33l-2.49-2,.13-1.06a49.77,49.77,0,0,1,5-.72c2.34-.11,3.12-1,2.37-2.64l2.66-1.08a11.35,11.35,0,0,0-2.61-1.68c-.9-.29-2,.05-3-.08a19.72,19.72,0,0,1-2.77-.78l-.05-1.29,6.66-2.36-2.92-1.94.13-.69c1.63-.26,3.26-.48,4.88-.8.68-.14,1.81-.36,1.9-.73.74-3.32,1.29-6.69,1.9-10.06-.4-.2-1.35-.4-1.77-1-1.83-2.52-3.29-1.62-5.13.09-2.81,2.61-5.85,5-8.83,7.43a2.35,2.35,0,0,1-2.13.3c2.5-3,5.06-6,7.48-9a5.47,5.47,0,0,0,1.17-3c.09-3.28.06-6.58-.17-9.85a8.63,8.63,0,0,0-1.3-4.26,33.7,33.7,0,0,1-5.2-12.91c-.7-3.32.28-4.63,3.28-4.46l-1.83-2.78c1.3-.65,2.48-1.24,3.64-1.84.48-.25.95-.54,1.42-.81-.47-.36-.93-.74-1.42-1.09q-2.22-1.6-4.46-3.19l.5-1.11,7.06.49.14-.63-2.07-1.32c.78-2,2.11-2.93,4.26-2.51.55.11,1.11.21,1.67.27,5.66.6,7.57-.85,9.14-6.29.38-1.32,1.74-2.38,2.7-3.51a3.57,3.57,0,0,1,2.12-1.48c-2.45-.17-5,0-7.34-.58-3.46-.84-4.82-4-3.82-7.46,2-6.79,3.85-13.6,5.87-20.77-4.07.55-6,4.4-9.38,6.06-.52-2.64.92-4.12,2.44-5.65,4-4,8.11-8,11.89-12.18s7-8.5,10.47-12.77c.12-.15.38-.31.36-.44-.48-4,2.46-7,3.06-10.56.81-4.77,3.25-8.66,5.44-12.73a2.22,2.22,0,0,1,1.88-.75c1.94.29,2.25-.72,2.37-2.32.49-6.72,1.25-13.44,1.52-20.17.1-2.45-1-4.93-1.29-7.43-.15-1.17-.28-2.77.35-3.54,2.92-3.56,2.57-7.37,1.4-11.33s-2.11-7.7-3.55-11.4c-2.15-5.57-4.59-11-7-16.47-1-2.21-2.58-3-4.87-1.42-.6.41-1.6.23-3.31.42l3-6.75L2748.7,960c.93-2.15,1.58-3.65,2.3-5.34-3.07-.68-4.59,1.26-6.16,2.78-.35.34-.06,2,.45,2.45,4.35,4.08,5.57,10,8.76,14.75a4.72,4.72,0,0,1,.77,3.29c-.67,3.05,1.23,4.89,2.8,6.89,3.94,5.06,6.39,10.56,5.15,17.14-.37,1.93-1,3.8-1.5,5.72-.59,2.45-.59,4.58,2.44,5.58a3,3,0,0,1,1.72,2.26c-.13,3.68.07,7.45-2,10.82q-2.53,4.18-4.8,8.54c-.28.54.12,1.42.18,2.14a19.09,19.09,0,0,1-4.65,14.39,50,50,0,0,1-6.56,6c-4.29,3.45-9.36,3.36-14.42,2.64-1.16-.17-2.21-1.12-3.31-1.72l.14-.93a7.63,7.63,0,0,1,2.34-.43c2.95.41,5.87,1,8.82,1.43.4.06.9-.32,1.3-.57,3.58-2.28,7.08-4.92,9.32-8.4,2.39-3.71,3.61-8.17,5.52-12.71-3.2-.65-4.34.63-4.76,2.71-.66,3.25-1.55,6.35-4.09,8.68a3.41,3.41,0,0,1-1.89.6c2.33-2.32,1.76-4-.18-6.2-1-1.1-.51-3.45-.71-5.41-3,.33-2.54,2.82-3.14,4.53s-.75,3.87-3.41,3.25a3,3,0,0,1-1.86-1.4,29.89,29.89,0,0,1-1.25-4.36c-3.19,3.24-3.88,6.69-2.24,10.27-1.8-1.09-3.6-2.2-5.72-3.5l-1.19,5.25-1,.13a38.14,38.14,0,0,1-1.25-5.49c-.19-2.13-1.11-2.1-2.3-1-2.89,2.72-5.95,3-9.41,1.22a2.28,2.28,0,0,0-1.85.15c-3.37,1.82-4.82,0-5.71-2.7s-3-5.09-1.89-8.41c.5-1.53-3.59-3.49-6.29-3a65.44,65.44,0,0,0,8.16,15.59c2.57,3.84,5.24,7.6,7.82,11.43.33.5.69,1.37.48,1.79-2.72,5.49-2,11.55-3,17.32-.08.43-.28.85-.71,2.13-.47-1.51-.94-2.24-.89-3,.32-4.65.66-9.3,1.16-13.93.23-2.18-.64-3.73-1.76-5.51-3.71-5.91-7.25-12-10.61-18.07a67.67,67.67,0,0,1-3.83-9.21c-.24-.63.24-1.53.53-3,1.61,2.24,2.81,4,4.5,1-2.34-2.29-2.19-4.64.44-6.81-5.4-2-8.08-6-7.7-11.72.27-3.94.28-8,1.31-11.74.82-3,2.94-5.6,4.64-8.28,2.16-3.37,4.46-6.65,6.75-9.94.29-.42.94-.59,1.29-1,3-3.44,6.17-6.8,9-10.41,1.11-1.42.89-4,4.38-3.09l-2.18-4.23c.65-.77,3.64.69,2.16-2.24-.09-.18,1-1.38,1.72-1.48a6,6,0,0,0,4.08-9.09c-1.84-2.72-4.52-5-5-8.54-.08-.65-.83-1.27-1.37-1.82-4.58-4.65-4.83-6.3-1.76-11.9a11.11,11.11,0,0,1,.74-1.25c.68-.91,1.86-2.64,2-2.54,1.49.8,3.29,1.67,4,3.05,1.08,1.95,1.17,4.43,2,6.54,1.25,3.06-.64,4.88-2.81,7,3.18,2.36,6,4.59,9,6.58.78.52,2.05.36,3.09.37,1.48,0,1.84-.75,1.28-2.08a11.82,11.82,0,0,0-.68-2c-2.15-3.35,1.81-6.36.46-9.65-1.06-2.61-1.75-5.43-3.18-7.82-1.77-3-1.83-4.73,1-6.77,1.52-1.09,1.91-2,1.07-3.88-.54-1.2-.14-2.82-.16-4.22-3.09.5-4.57,3.12-6,6a14.92,14.92,0,0,1-2.49,2.88c-1.18-1.21-2.77-2.25-3.38-3.7-.43-1,.35-2.64.85-3.9a12.42,12.42,0,0,1,1.9-3.13c.65-.81,1.57-2.05,2.33-2,3,.13,6.23-1.29,9.14,1.39,1.07,1,3.58.39,6.16.57-.5-1.74-.51-3.46-1.36-4.44-2.92-3.37-6.15-6.39-11-6.86-3.82-.37-6.9,1.3-10,3.15a10.15,10.15,0,0,1-2.84.54c3.87-6.56,10.08-7.39,15.47-6.59,6.76,1,10.73,5.41,12.62,11.91a17.18,17.18,0,0,0,2.26,4.56c4.9,7.41,5.64,15.51,4,24-.69,3.48,2,5.39,3.31,7.83,1.84,3.38,3.66,6.58,4.62,10.44.6,2.38,3.42,4.17,5.13,6.32,3.8,4.78,7.82,9.43,11.22,14.49,4.3,6.39,6.25,13.75,6.93,21.38.22,2.49-.11,5-.14,7.54,0,5.15.19,10.3-.11,15.43-.49,8.52-1.32,17-2,25.55a64.68,64.68,0,0,0-.33,7.23c.16,4.74-1.25,9.1-2.88,13.44-2.44,6.44-4.83,12.89-7.22,19.34-3.09,8.38-6.63,16.63-9.09,25.19-1.91,6.62-2.31,13.65-3.64,20.44-1.68,8.65.56,17.24.09,25.86-.41,7.37-.94,14.76-.82,22.14.07,4.15,1.21,8.31,2.12,12.41,1.93,8.62,4.19,17.17,6,25.81a207.41,207.41,0,0,1,3.73,22c.53,5.34,2.79,9.84,4.69,14.62a127.36,127.36,0,0,1,4.72,14.68c2.44,9.32,4.42,18.76,7,28.05,1.38,5.06,3.54,9.91,5.35,14.86,3,8.27,5.75,16.65,9.1,24.77,3,7.39,5.83,15,11.57,20.93a38.91,38.91,0,0,0,12.13,8.1c4.31,2,8.44,4.35,12.64,6.55a34.3,34.3,0,0,1,11.21,8.6c1.21,1.49,4.08,1.71,6.25,2.33,4.12,1.16,8.66,1.19,11.95,4.5,5.91,5.94,13.65,10.72,14.76,20,.57,4.77-.12,9.71-.4,14.56-.25,4.54-.71,18.74-1.08,23.28C2813.34,1438.07,2745.52,1429.08,2679.65,1423.05Zm46.88-423.85a38.62,38.62,0,0,1-2.77-4.33c-.7-1.51-1.94-4-1.37-4.62,1.44-1.65,2.73-4,5.78-3.75,1.54.13,4-.42,4.57-1.46.87-1.64.65-4,.45-6,0-.43-2.24-1.25-2.92-.89-1.44.76-2.37,2.69-3.83,3.19s-2.78,3.15-5.3,1.35l2.61-2.72c-2.95-.89-4.26,1.33-5.08,2.8-3.05,5.51-7.39,9.88-11.56,14.45-.83.91-1.47,3-1,3.91,5.71,11.63,12.74,22.29,23.7,29.73,1,.67,2.73,1.47,3.44,1,.92-.54,1.15-2.25,1.77-3.68-3.05-.45-4.94-1.11-4.27-4.26.15-.71-1-1.7-1.54-2.53a15.67,15.67,0,0,1-1.65-2.21c-.77-1.59-1-3.5-3.47-3.56-.42,0-1.26-1.31-1.13-1.79.73-2.62-.26-4.32-2-6.31-1.87-2.19-3.19-4.69-6.12-5.87-2.14-.85-3.48-6.31-2.2-7.82s2.83-3.18,4.2-4.71c4.41,3.94,2.9,8.24,3.27,12.1l2.72,1-.38-.67Zm3.65,13.63c3.08-.89,2.47-3.14,2.77-4.85.26-1.54-.28-2.63-2.19-2.51s-3.15,1-2.77,2.81C2728.34,1009.91,2729.45,1011.39,2730.18,1012.83Z"/><path class="cls-2" d="M2601.17,1415.46c2.13-5.19,5.62-12.11,8.08-17.14a24.78,24.78,0,0,1,5.5-7.14c4.37-4,9.16-7.63,13.64-11.56,3-2.61,6.37-3.33,10.18-3.53,4.94-.26,9.86-1.31,14.79-1.42,6.27-.15,12.55.3,18.83.5a20.87,20.87,0,0,1,3.45.3c.51.11.92.71,1.37,1.09-.49.3-1,.83-1.48.87-2.45.21-4.91.28-7.36.4-6.84.33-13.7.52-20.53,1.05a42.77,42.77,0,0,0-10.9,1.87,33.55,33.55,0,0,0-14.27,9.16,81.43,81.43,0,0,0-14.19,21.77c-.4.93-2.94,3.22-3.63,4Z"/><path class="cls-2" d="M2630.85,1418.34c-.32-.68.27-3.83,0-4.41,1.22-.54,2.42-1,3.53-1.57a55.64,55.64,0,0,1,16.27-6.18,17,17,0,0,0,2.21-.54c1.93-.63,3.3-.41,3.37,2-5.48,2.94-11.82,8.34-17.27,11.27Z"/><path class="cls-2" d="M2675.88,1178.77l-.48,1.09-1.18-.25c.58,4.18,1.15,8.36,1.77,12.86.76-.34,1.29-.41,1.36-.63,1.37-4.33,4.13-7.62,7.47-10.57a36,36,0,0,0,3.34-4.16c.18-.22.69-.14,1-.32.91-.58,2.24-1,2.62-1.86,2.24-5,4-10.17,6.44-15,1.11-2.22,3.34-3.88,5-5.82a14.24,14.24,0,0,0,1.18-2.11,30.26,30.26,0,0,1,2.26,3.53c1.12,2.41,1.86,5,3.13,7.33,2,3.59-.26,6.28-2,8.74a16.55,16.55,0,0,0-3,9.45,56.6,56.6,0,0,1-.61,7.82c-1.15,7.1.52,14,1.23,21q1.89,18.56,3.88,37.09c.68,6.22,1.89,12.4,2.21,18.63.65,12.83,3.86,25.24,5.61,37.89,1.29,9.34,3.1,18.68,3.48,28.06.17,4.29-2.48,8.71-4,13-.26.75-1.27,1.24-2.07,2-1.1-5.24-2.07-10.07-3.13-14.87-.76-3.41-2.08-6.76-2.38-10.21-.57-6.46-.63-13-.8-19.47-.1-3.63.68-7.43-.12-10.87-1.14-4.91-.61-9.79-1-14.66-.54-7.1-1.07-14.2-1.81-21.28-.94-9.13-2.17-18.23-3.11-27.36-.38-3.75-.28-7.54-.52-11.31a20.87,20.87,0,0,0-.85-4.92,1.55,1.55,0,0,0-2.73-.78c-1.34,1.09-2.63,2.22-3.94,3.34a8,8,0,0,1-8.53,1.55c5.31-1.93,9-5.37,10.71-10.63l-8-1.93,0-1,9.07-1.45c-.69-3.28-1.36-6.28-2-9.3a63.81,63.81,0,0,0-1.16-6.37,3.65,3.65,0,0,0-2.27-2.21,3,3,0,0,0-2.47,1.66,10.3,10.3,0,0,1-3.6,5.72c-.69.58-.81,1.85-1.19,2.8-.85,2.11-1.38,4.46-2.68,6.24-.67.91-2.72.8-4.66,1.28.43,2.17.9,4.74,1.46,7.28,1.51,6.86,3,13.73,4.64,20.55,1.42,5.74,3.17,11.4,4.68,17.11a25.41,25.41,0,0,1,.42,3.92l-.25.15c-3.26-.65-2-3.79-2.66-5.6a193,193,0,0,1-5.94-19.81c-1.72-6.66-3-13.43-4.62-20.12-1-4.05-2.36-8-3.4-12a30.85,30.85,0,0,1-1.33-7.24c-.09-6.81.07-13.62.32-20.42.06-1.54.93-3,1.42-4.57l.77.23c.35,5.61.63,11.22,1.12,16.81.07.78,1.23,1.46,1.88,2.18Z"/><path class="cls-2" d="M2728.29,1307.52c.41,4,.89,7.89,1.21,11.84.25,3.11,1.89,6.2.17,10.26-1.12-1.55-2.29-2.47-2.49-3.56-1-5.39-1.71-10.82-2.51-16.25-.24-1.66-.4-3.33-.61-5-.38-3-.77-6-1.21-9.4l2.94.77a8.17,8.17,0,0,0,.21-2.48c-1.24-5.49-2.58-11-3.89-16.42-.76-3.19-1.59-6.37-2.26-9.58-.37-1.76-1.25-3.78,1.75-5.16,1,2,1.93,4.06,3,6,2.72,5.07,5.3,10.23,8.31,15.11a26.77,26.77,0,0,1,4.33,11.32,18,18,0,0,1-.43,6.3c-.43,1.7-.65,2.86.51,4.48,2.49,3.49,4.84,7.15,3.31,11.92-.22.68.77,1.84,1.35,2.68,2.59,3.72,1.9,7.06-1.88,8.78-3,1.36-6.47-1-7.28-4.68s-2-7.37-3-11.06c-.53-2-1-3.9-1.54-5.85-.24-2.42-.49-4.84-.73-7.26l-1.48.32C2726.78,1302.92,2727.53,1305.22,2728.29,1307.52Z"/><path class="cls-2" d="M2687.12,1103.5l-8.52,8.9.8.82c1.51-1.25,2.94-2.6,4.54-3.72,4.92-3.47,9.79-7,14.91-10.19a56.37,56.37,0,0,1,9.65-4.27c.4-.15,1.81,1,1.91,1.7a31.62,31.62,0,0,1,.31,6.8,5.27,5.27,0,0,1-1.46,3.24c-5,4.85-10.42,9.34-15.23,14.39-3.55,3.73-6.37,8.15-9.56,12.23-1.17,1.49-2.81,1.14-3.47-.71-.18-.51-.09-1.12-.22-1.66a9.5,9.5,0,0,0-.56-1.32c-2.61,1.6-4.71-1.17-5-9.9-.51,1.56-.85,2.54-1.15,3.53s-.51,1.86-.76,2.75c-2.3-2.78-1.35-10.27,3-15.73,2.65-3.32,5.8-6.77,10.21-7.9Z"/><path class="cls-2" d="M2675.88,1178.77l.09.08c0-3.06-.13-6.15.19-9.19.44-4.09,1.27-8.15,2-12.39,5.54,1.12,8.41-2.7,11.32-6a55.08,55.08,0,0,0,5.32-8.06,25.09,25.09,0,0,1,2.86-4.58l1.09,2.74.68-1.2,4.28.55-.05-.06-4,2c-1.73.85-1.58,2.18-.54,3.31,1.64,1.79,1.28,3.36.12,5.21-1.7,2.71-2.5,6.1-6,7.38-.39.15-.28,1.43-.61,2.07-.59,1.15-1.35,2.2-2,3.3l-2.13-2.67-1.48,9-4.45-1c-.19,2.75-.22,5.78-.69,8.75-.19,1.14-1.36,2.13-2.09,3.19l-1-.52.46-6.74-.31,0a41.89,41.89,0,0,1-1.32,4.34C2677.38,1178.6,2676.45,1178.61,2675.88,1178.77Z"/><path class="cls-2" d="M2703.2,1318.33c-.17-1-.37-1.92-.49-2.88a104.2,104.2,0,0,1-1.23-11c-.08-4.35.82-8.74.58-13.07-.41-7.38-1.24-14.75-2.16-22.09-.58-4.59-1.53-9.15-2.54-13.67-.94-4.19-2.18-8.31-3.54-13.38,1.34,1.25,2.51,1.86,2.92,2.8a98.16,98.16,0,0,1,5.15,12.83,114.11,114.11,0,0,1,3,15.4,92.36,92.36,0,0,1,.56,20.83c-.51,5.7-.27,11.47-.5,17.21-.1,2.28-.57,4.55-.87,6.82Z"/><path class="cls-2" d="M2745.3,1338.66c2.12,2.79,4.57,5.39,6.25,8.42,1.84,3.32,2.95,7,4.39,10.58,1,2.41-.2,4.29-2,5.42-2,1.31-4.23.17-5.64-2.13-.34-.55-1.27-.76-1.94-1.1-1.27-.65-3-1-3.69-2-.46-.68.4-2.42.92-3.57a16.18,16.18,0,0,0,1-9.27c-.27-1.92-.37-3.86-.55-5.79Z"/><path class="cls-2" d="M2688.66,1249.28c.34.9.73,1.79,1,2.71,1.22,4,2.3,8.15,3.63,12.16,2.67,8.12,3.43,16.49,3.88,24.95.26,5,1.18,10,1.64,15,.37,4,.47,7.92.74,11.87.23,3.38.53,6.76.8,10.14l-.9.36c-.43-.69-1.15-1.34-1.23-2.07-.68-6.4-1.17-12.82-1.86-19.23-.79-7.36-1.81-14.69-2.58-22.06-.34-3.2-.12-6.46-.48-9.66-.32-2.82-1.35-5.56-1.6-8.37s-2.24-5.1-2-8.14c.15-1.57-1.15-3.24-1.57-4.92a8.25,8.25,0,0,1,.23-2.58Z"/><path class="cls-2" d="M2712.22,1137.43c2.55.23,3.66,1.44,2.39,2.7-3,3-.65,5.93-.37,8.81.22,2.25,1.37,4.39,1.76,6.63a2.91,2.91,0,0,1-2.64,3.7c-2.34.42-2.44-.64-2.44-2.57a15.66,15.66,0,0,0-1.14-5.78,12.78,12.78,0,0,0-3.13-4.48c-2.53-2.3-2.67-3-.07-5.08,1.35-1.09,2.67-2.23,4.07-3.23A5.88,5.88,0,0,1,2712.22,1137.43Z"/><path class="cls-2" d="M2709,1339.86c.5,4.32,1.32,8.63,1.42,13a94.51,94.51,0,0,1-.94,13c-.11,1-1.3,1.83-2,2.74-.72-1-2-2-2.07-3a85.38,85.38,0,0,1,1-23.4,10.57,10.57,0,0,1,1.22-2.51Z"/><path class="cls-2" d="M2721.43,1073.6c7.15,2.87,14.27-.47,21.59-1.28-2.76,4.75-7.1,6.38-11.93,7.21a76.76,76.76,0,0,0-7.85,1.57c-2,.57-3.68.55-4.79-1.3a2.88,2.88,0,0,1,.13-2.41A33.3,33.3,0,0,1,2721.43,1073.6Z"/><path class="cls-2" d="M2656.05,1387.74c-1.88.93-3.71,2-5.65,2.76a26.92,26.92,0,0,1-6.3,1.92c-2.92.37-4.63,2.09-6.16,4.27-.39.54-.79,1.37-1.31,1.48a25.48,25.48,0,0,1-3.92.23c.1-1.15-.25-2.77.38-3.36,2.57-2.44,4.65-5.52,8.71-6.14,3-.46,5.81-2,8.8-2.69,1.59-.36,3.38.15,5.07.26Z"/><path class="cls-2" d="M2685.22,992.43c-2,8.46,2.47,15,4.63,22.33C2684.1,1011.27,2680.35,995.26,2685.22,992.43Z"/><path class="cls-2" d="M2678.05,1372.58c1.33-4.52,12-11.68,16.84-12l.45.68Z"/><path class="cls-2" d="M2699.61,974.74l-11.1,13.69c-.65-2.95.37-4.42,2.25-5.83,1.22-.9,1.8-2.63,2.85-3.83,1.52-1.74,3.21-3.34,4.82-5Z"/><path class="cls-2" d="M2703.67,1140.71c.08-4.2.08-4.2,6.72-6.19,1.35,2.67-1.09,2.72-2.28,4a6.46,6.46,0,0,1-4.49,2.16Z"/><path class="cls-2" d="M2733,1067.52c-3.28,2.29-5.44,2.45-7.43.65C2727.47,1065.29,2730.62,1064.94,2733,1067.52Z"/><path class="cls-2" d="M2725.34,1062c2-1.71,3.78-1.61,5.68.33C2729,1065.4,2727.08,1065.3,2725.34,1062Z"/><path class="cls-2" d="M2736.29,1052.52l5.72.8c-1.46,1-2.43,2.11-3.12,2-1.1-.25-2-1.36-3-2.11Z"/><path class="cls-2" d="M2720.93,896.64c-5.69,5-4.41,8.17-1.84,9.61a15.5,15.5,0,0,0,6.52,2c1.17,0,6.47-2.45,3.62-2.45-1.5,0-6-.46-8-1.82-1.81-1.25-1.22-3.35.18-4.75C2724.35,896.31,2720.93,896.64,2720.93,896.64Z"/><path class="cls-5" d="M2765,829.43c.77-8,1.61-16.49,2.33-25.65a683.49,683.49,0,0,0,2.07-82.27c-.85-21.76-6.68-83.6-6.68-83.6a109.82,109.82,0,0,0-35.15-4.08s7.46,33.38,9.76,45c4.79,24.26,6.9,47.07,8.26,67.37,2.22,33.46,2.06,60.7,1.56,83.11-.06,3-1.81,39.74-3.3,50.49a5.88,5.88,0,0,1-.24.7h-1.7c-2,0-1.86.28-1.71-1.83.54-7.82,1.36-42.42,1.21-48.1-.43-16.5-.78-35.61-1.75-57.88a540,540,0,0,0-8.64-75.86c-2.75-14.67-6.83-31.5-9-45.2-.87-5.42-2.42-17.34-2.42-17.34,0-.59-17.5,2.54-23.94,5.18,4.15,13.3,9.16,27.27,12.32,38.85,7.55,27.66,11.59,53.21,14.56,75.54,4,29.89,5.83,54.62,6.88,75.3.14,2.89,3.42,40.77,2.85,50.57a5.36,5.36,0,0,1-.18.76c-.76,0-1.48-.06-2.19,0-1.15.12-1.47-.31-1.42-1.47.33-8.57-4.09-42.49-4.64-48.51-.49-5.45-.9-11.17-1.48-17.17A844.72,844.72,0,0,0,2710,727.1c-3.74-18.84-8.47-39.48-16.36-59.43-6.5-16.4-1-24.7-9.44-23.89-7.2.7-39,21.77-37.84,21.7,0,0,1,2.94,1,2.94,10-1,19.32,14.13,27.08,33.32,7.29,18,12.21,35.56,16.21,51.62,7.55,30.31,11.91,55.39,15.18,76.3,1.06,6.76,10.64,42.63,13,51.73s9.75,10.32,14.87,10.36c5.48,0,10.42-3.16,16.54-7.8S2764.78,832,2765,829.43Z"/><g class="cls-6"><path class="cls-7" d="M2741.87,911a13.57,13.57,0,0,1,0-9.34c3.63-11,11.65-16.92,22.81-18.89a29.75,29.75,0,0,1,22.36,4.89c6.32,4.2,9.69,13.78,7.38,21-1.47,4.61-4.12,5.42-7.61,2.12-1.93-1.82-3.39-4.12-5.29-6-3-2.95-5.91-6.28-9.46-8.43-10.73-6.49-26.91-.75-29.78,13C2742.17,909.93,2742,910.47,2741.87,911Zm44.75-5.64c-.38-5.63-6-12-12-11.61A37.65,37.65,0,0,1,2786.62,905.37Z"/><path class="cls-7" d="M2722.12,907.27a65.54,65.54,0,0,0-2.58-6.94,20.29,20.29,0,0,0-20.61-10.6A19.53,19.53,0,0,0,2686.6,896c-2.91,3.1-5.7,6.3-8.6,9.41a16,16,0,0,1-2.79,2.48c-2,1.38-3.75.92-5-1.22a14,14,0,0,1-1.7-8.55c.93-9.57,6.57-15.42,15.34-18.23,11.54-3.71,22.17-1.72,31.17,6.63a22.43,22.43,0,0,1,7.45,18.83C2722.44,905.83,2722.29,906.36,2722.12,907.27ZM2683.87,894a16.29,16.29,0,0,0-9,4.37,18.36,18.36,0,0,0-2.85,4.16,1.86,1.86,0,0,0,.9,2.72,2.92,2.92,0,0,0,2.3-.76,6.38,6.38,0,0,0,1.51-2.23C2678.38,898.87,2680.42,895.88,2683.87,894Z"/><path class="cls-7" d="M2757.32,883.89c-1-2.51-.36-4.91.35-7.16,3-9.39,9.34-15.34,18.77-18.05a21.09,21.09,0,0,1,15,.77c3.62,1.66,6.5,4.21,7.73,8.16.93,3-.35,4.79-3.41,4.31a66,66,0,0,1-10.7-2.69,21.35,21.35,0,0,0-24.15,7.46,41.25,41.25,0,0,0-2.95,5.54C2757.68,882.75,2757.53,883.34,2757.32,883.89Zm30-17.4c1.76,1,3.29,2,4.87,2.78.36.19.92,0,1.39,0-.12-.49-.08-1.17-.39-1.45C2791.51,866.27,2789.49,866.15,2787.32,866.49Z"/><path class="cls-7" d="M2711.53,880.87c-2.41-7.17-6.91-12.27-14.07-14.76-5.23-1.82-10.38-1-15.54.63a54.49,54.49,0,0,1-9.43,2c-2.73.32-3.68-1.13-3-3.84.95-3.82,3.61-6.27,6.89-8,5.56-3,11.42-2.76,17.2-.86a26,26,0,0,1,17.29,17C2711.7,875.56,2712.33,878.17,2711.53,880.87Zm-36.27-15.62c5.86-2,11.48-3,17.75-2C2687.14,859.55,2679.26,860.43,2675.26,865.25Z"/><path class="cls-7" d="M2756.8,905.31a13.5,13.5,0,0,1,7.25,0,5.36,5.36,0,0,1,2,1.2c1.51,1.39,1.71,3.15.61,4.35a3.55,3.55,0,0,1-4.67.14,9.16,9.16,0,0,1-1-1.11Z"/><path class="cls-7" d="M2706.87,896.69a13.54,13.54,0,0,0-7.26-.05,5.44,5.44,0,0,0-2,1.2c-1.51,1.39-1.7,3.15-.6,4.35a3.53,3.53,0,0,0,4.66.14,8.5,8.5,0,0,0,1.05-1.11Z"/><path class="cls-7" d="M2690.58,871.6a13.5,13.5,0,0,0-7.25-.05,5.58,5.58,0,0,0-2,1.2c-1.51,1.39-1.7,3.15-.6,4.36a3.54,3.54,0,0,0,4.66.14,10,10,0,0,0,1-1.11C2687.82,874.63,2689.2,873.11,2690.58,871.6Z"/></g><path class="cls-2" d="M1793.07,2117.37l19.31-23.18c12,11.14,27.95,18.64,42.72,18.64,17.5,0,26.82-7.5,26.82-19.32,0-12.5-10.23-16.36-25.23-22.72l-22.49-9.54c-17-7.05-34.09-20.68-34.09-45.22,0-27.5,24.09-48.63,58.17-48.63,19.55,0,39.09,7.72,52.72,21.58l-17,21.14c-10.68-8.86-21.81-13.86-35.68-13.86-14.77,0-24.31,6.59-24.31,17.72,0,12,12,16.36,26.36,22l22,9.32c20.45,8.41,33.86,21.36,33.86,45.67,0,27.5-23,50.9-61.81,50.9A89.6,89.6,0,0,1,1793.07,2117.37Z"/><path class="cls-2" d="M1946,1970.58h55.22c37.27,0,65.9,13,65.9,52.72,0,38.4-28.86,55.67-65,55.67h-22.5v59.76H1946Zm53.86,81.8c23.17,0,34.31-9.77,34.31-29.08,0-19.55-12.27-26.14-35.45-26.14h-19.09v55.22Z"/><path class="cls-2" d="M2097.55,1970.58h33.63v66.12h63.63v-66.12h33.4v168.15h-33.4V2066h-63.63v72.71h-33.63Z"/><path class="cls-2" d="M2269.56,1970.58h103.16v28h-69.53v38.86h59.08v28.17h-59.08v45h72v28.18H2269.56Z"/><path class="cls-2" d="M2500.88,2138.73l-34.54-63.62h-23.41v63.62H2409.3V1970.58h58.63c35.22,0,63.17,12.27,63.17,50.9,0,25.22-12.73,40.9-32,48.4l39.31,68.85Zm-58-90.21h21.82c21.58,0,33.4-9.09,33.4-27,0-18.18-11.82-24.32-33.4-24.32h-21.82Z"/><path class="cls-2" d="M2564.27,1970.58h33.63v168.15h-33.63Z"/><path class="cls-2" d="M2630.84,2055.34c0-55.45,35.68-87.94,78.17-87.94,21.36,0,38.4,10.22,49.31,21.58l-17.72,21.36c-8.41-8.18-18.18-14.08-30.91-14.08-25.45,0-44.54,21.81-44.54,57.94,0,36.59,17.27,58.63,43.86,58.63,14.32,0,25.68-6.82,34.77-16.59l17.72,20.9c-13.86,16.14-31.81,24.77-53.63,24.77C2665.38,2141.91,2630.84,2111.46,2630.84,2055.34Z"/><path class="cls-2" d="M2770.36,2061.7h62v23.86h-62Z"/><path class="cls-2" d="M2847.85,2118.51l78.39-120h-70.9v-28h112v20l-78.17,120h79.08v28.18H2847.85Z"/><path class="cls-2" d="M2995.31,1957.4h33.18v45.67l-1.36,23.86c10.22-9.54,22.72-18.63,40-18.63,27.49,0,39.31,19.09,39.31,51.13v79.3H3073v-75.21c0-19.54-5.46-26.59-18-26.59-10.46,0-17,5-26.59,14.32v87.48h-33.18Z"/><path class="cls-2" d="M3139.38,2091v-79.53h33.4v75.22c0,19.76,5.45,26.58,17.72,26.58,10.46,0,17.27-4.54,25.91-15.9v-85.9h33.4v127.25h-27.27l-2.5-18.18h-.91c-10.9,13-23.17,21.36-40.67,21.36C3151.19,2141.91,3139.38,2122.83,3139.38,2091Z"/><path class="cls-2" d="M3285.48,1957.4h33.18v45.67l-1.37,23.86c10.23-9.54,22.73-18.63,40-18.63,27.49,0,39.31,19.09,39.31,51.13v79.3h-33.4v-75.21c0-19.54-5.46-26.59-18-26.59-10.45,0-17,5-26.58,14.32v87.48h-33.18Z"/><path class="cls-2" d="M3424.54,2104.19c0-27.27,22.05-41.58,73.17-47-.45-12.49-5.9-22-21.58-22-11.82,0-23.18,5.23-35,12.05l-12-22c15-9.32,33.18-16.82,53.17-16.82,32.27,0,48.86,19.31,48.86,56.13v74.3h-27.27l-2.5-13.63h-.68c-11.14,9.54-23.86,16.81-38.4,16.81C3439.54,2141.91,3424.54,2125.78,3424.54,2104.19Zm73.17-.91v-25.67c-30.9,4.09-41.35,12.49-41.35,23.86,0,10,7,14.31,16.81,14.31C3482.72,2115.78,3489.76,2111.24,3497.71,2103.28Z"/><path class="cls-2" d="M3562,1972.85c0-10.91,8.4-18.18,20-18.18,11.36,0,19.77,7.27,19.77,18.18,0,10.45-8.41,18.18-19.77,18.18C3570.42,1991,3562,1983.3,3562,1972.85Zm3.18,38.63h33.17v127.25H3565.2Z"/><path class="cls-2" d="M1789.08,2282.72c26-23.24,41.32-41.19,41.32-55.91,0-9.69-5.29-15.5-14.33-15.5-7,0-12.79,4.52-17.57,9.82l-10.33-10.33c8.78-9.3,17.31-14.47,30.35-14.47,18.08,0,30.09,11.62,30.09,29.44,0,17.31-14.34,35.9-31.77,52.95,4.78-.52,11.11-1,15.5-1h20.79v16h-64.05Z"/><path class="cls-2" d="M1865.27,2245.53c0-33.06,12.91-49.2,32.41-49.2s32.28,16.27,32.28,49.2-12.91,50-32.28,50S1865.27,2278.46,1865.27,2245.53Zm46.75,0c0-26.73-6.2-34.48-14.34-34.48s-14.46,7.75-14.46,34.48,6.2,35.13,14.46,35.13S1912,2272.39,1912,2245.53Z"/><path class="cls-2" d="M1941.2,2282.72c26-23.24,41.32-41.19,41.32-55.91,0-9.69-5.29-15.5-14.33-15.5-7,0-12.78,4.52-17.56,9.82l-10.33-10.33c8.78-9.3,17.3-14.47,30.34-14.47,18.08,0,30.09,11.62,30.09,29.44,0,17.31-14.33,35.9-31.76,52.95,4.77-.52,11.1-1,15.49-1h20.79v16h-64Z"/><path class="cls-2" d="M2084.16,2268.91h-11.37v24.79H2055.1v-24.79h-40.68V2256l35.64-57.85h22.73v56.3h11.37Zm-29.06-14.47v-19.5c0-5.55.52-14.2.77-19.75h-.51c-2.33,5-4.91,10.33-7.62,15.49l-14.85,23.76Z"/><path class="cls-2" d="M2128.84,2198.14H2148v95.56h-19.11Z"/><path class="cls-2" d="M2169.9,2221.38h15.5l1.29,9.56h.52c6.32-6.2,13.68-11.36,23.5-11.36,15.62,0,22.34,10.84,22.34,29.05v45.07h-19V2251c0-11.11-3.1-15.11-10.21-15.11-5.94,0-9.68,2.84-15.1,8.13v49.72H2169.9Z"/><path class="cls-2" d="M2255.39,2268.39v-32h-10.2v-14.07l11.11-.91,2.19-19.37h15.88v19.37h17.83v15h-17.83v32c0,8.26,3.36,12.14,9.82,12.14a21.27,21.27,0,0,0,7.1-1.55l3.1,13.82a46.75,46.75,0,0,1-15.24,2.71C2262,2295.51,2255.39,2284.66,2255.39,2268.39Z"/><path class="cls-2" d="M2300,2257.67c0-23.5,16.4-38.09,33.7-38.09,19.89,0,30.22,14.59,30.22,34.6a35.11,35.11,0,0,1-.91,8.66h-44.55c1.55,11.88,9.3,18.08,20,18.08a29.81,29.81,0,0,0,16.27-5l6.46,11.62a45.64,45.64,0,0,1-25.31,8C2315.7,2295.51,2300,2281.43,2300,2257.67Zm47.65-7.36c0-9.81-4.39-16-13.69-16-7.62,0-14.34,5.42-15.76,16Z"/><path class="cls-2" d="M2379.5,2221.38H2395l1.29,12.79h.52c5.29-9.43,13-14.59,20.53-14.59a20.34,20.34,0,0,1,8.52,1.55l-3.35,16.4a22.68,22.68,0,0,0-7.49-1.17c-5.68,0-12.53,3.75-16.66,14.21v43.13H2379.5Z"/><path class="cls-2" d="M2435.8,2221.38h15.49l1.3,9.56h.51c6.33-6.2,13.69-11.36,23.51-11.36,15.62,0,22.34,10.84,22.34,29.05v45.07h-19V2251c0-11.11-3.1-15.11-10.2-15.11-5.94,0-9.68,2.84-15.11,8.13v49.72H2435.8Z"/><path class="cls-2" d="M2515,2274.07c0-15.49,12.53-23.63,41.58-26.73-.26-7.1-3.36-12.53-12.27-12.53-6.71,0-13.17,3-19.88,6.85l-6.85-12.53c8.53-5.29,18.86-9.55,30.22-9.55,18.34,0,27.76,11,27.76,31.89v42.23H2560l-1.42-7.75h-.39c-6.33,5.43-13.56,9.56-21.82,9.56C2523.48,2295.51,2515,2286.34,2515,2274.07Zm41.58-.51V2259c-17.56,2.33-23.5,7.11-23.5,13.56,0,5.68,4,8.14,9.56,8.14S2552,2278.07,2556.54,2273.56Z"/><path class="cls-2" d="M2595.15,2268.39v-32H2585v-14.07l11.11-.91,2.19-19.37h15.89v19.37H2632v15h-17.82v32c0,8.26,3.36,12.14,9.81,12.14a21.16,21.16,0,0,0,7.1-1.55l3.1,13.82a46.74,46.74,0,0,1-15.23,2.71C2601.74,2295.51,2595.15,2284.66,2595.15,2268.39Z"/><path class="cls-2" d="M2644.87,2199.43c0-6.2,4.78-10.33,11.37-10.33s11.23,4.13,11.23,10.33c0,5.94-4.78,10.33-11.23,10.33S2644.87,2205.37,2644.87,2199.43Zm1.81,22h18.85v72.32h-18.85Z"/><path class="cls-2" d="M2681.42,2257.67c0-24.15,16.66-38.09,34.74-38.09s34.73,13.94,34.73,38.09c0,23.89-16.66,37.84-34.73,37.84S2681.42,2281.56,2681.42,2257.67Zm50.1,0c0-13.69-5.55-22.6-15.36-22.6s-15.37,8.91-15.37,22.6,5.55,22.34,15.37,22.34S2731.52,2271.23,2731.52,2257.67Z"/><path class="cls-2" d="M2766.78,2221.38h15.49l1.3,9.56h.51c6.33-6.2,13.69-11.36,23.51-11.36,15.62,0,22.34,10.84,22.34,29.05v45.07h-19V2251c0-11.11-3.1-15.11-10.2-15.11-5.94,0-9.68,2.84-15.11,8.13v49.72h-18.85Z"/><path class="cls-2" d="M2845.94,2274.07c0-15.49,12.53-23.63,41.58-26.73-.26-7.1-3.36-12.53-12.27-12.53-6.71,0-13.17,3-19.88,6.85l-6.85-12.53c8.53-5.29,18.86-9.55,30.22-9.55,18.34,0,27.77,11,27.77,31.89v42.23H2891l-1.42-7.75h-.39c-6.33,5.43-13.56,9.56-21.82,9.56C2854.46,2295.51,2845.94,2286.34,2845.94,2274.07Zm41.58-.51V2259c-17.56,2.33-23.5,7.11-23.5,13.56,0,5.68,4,8.14,9.56,8.14S2883,2278.07,2887.52,2273.56Z"/><path class="cls-2" d="M2925.88,2273.43v-82.78h18.85v83.68c0,4.26,2.07,5.68,3.87,5.68a10.66,10.66,0,0,0,2.59-.26l2.32,14.08a25.88,25.88,0,0,1-9.81,1.68C2930.53,2295.51,2925.88,2286.86,2925.88,2273.43Z"/><path class="cls-2" d="M2988,2198.14h19.5l7.62,46.62c1.42,10.07,3,20.27,4.39,30.47h.52c1.93-10.2,4-20.53,6.07-30.47l11.1-46.62h16.27l11.11,46.62c2.06,9.81,4,20.14,6.07,30.47h.64c1.42-10.33,2.84-20.53,4.26-30.47l7.49-46.62h18.21l-17.69,95.56h-23.76l-10.72-47.26c-1.55-7.49-3-14.85-4.13-22.09h-.52c-1.29,7.24-2.58,14.6-4.13,22.09l-10.46,47.26h-23.37Z"/><path class="cls-2" d="M3109.51,2257.67c0-24.15,16.66-38.09,34.74-38.09s34.73,13.94,34.73,38.09c0,23.89-16.65,37.84-34.73,37.84S3109.51,2281.56,3109.51,2257.67Zm50.1,0c0-13.69-5.55-22.6-15.36-22.6s-15.37,8.91-15.37,22.6,5.55,22.34,15.37,22.34S3159.61,2271.23,3159.61,2257.67Z"/><path class="cls-2" d="M3194.87,2221.38h15.5l1.29,12.79h.52c5.29-9.43,13-14.59,20.53-14.59a20.37,20.37,0,0,1,8.52,1.55l-3.36,16.4a22.64,22.64,0,0,0-7.49-1.17c-5.68,0-12.52,3.75-16.66,14.21v43.13h-18.85Z"/><path class="cls-2" d="M3251.17,2190.65h18.47v62h.52l25.05-31.26h20.66l-25,29.58,27.38,42.74h-20.54l-17.56-30-10.46,11.88v18.08h-18.47Z"/><path class="cls-2" d="M3322.46,2285.31l8.65-11.88c6.46,5,12.66,7.87,19.37,7.87,7.23,0,10.46-3.1,10.46-7.62,0-5.42-7.49-7.87-15.11-10.84-9.17-3.49-19.75-9-19.75-21.05,0-13,10.58-22.21,26.85-22.21,10.59,0,18.6,4.39,24.67,8.91l-8.52,11.49c-5.17-3.62-10.2-6.2-15.63-6.2-6.45,0-9.55,2.84-9.55,7,0,5.3,7.1,7.24,14.72,10.08,9.55,3.61,20.14,8.39,20.14,21.82,0,12.66-9.94,22.86-28.79,22.86C3340.28,2295.51,3329.56,2291.25,3322.46,2285.31Z"/><path class="cls-2" d="M3393.23,2190.65h18.85v26l-.77,13.56c5.81-5.43,12.91-10.59,22.72-10.59,15.63,0,22.34,10.84,22.34,29.05v45.07h-19V2251c0-11.11-3.1-15.11-10.2-15.11-5.94,0-9.68,2.84-15.11,8.13v49.72h-18.85Z"/><path class="cls-2" d="M3471.36,2257.67c0-24.15,16.66-38.09,34.73-38.09s34.74,13.94,34.74,38.09c0,23.89-16.66,37.84-34.74,37.84S3471.36,2281.56,3471.36,2257.67Zm50.1,0c0-13.69-5.55-22.6-15.37-22.6s-15.36,8.91-15.36,22.6,5.55,22.34,15.36,22.34S3521.46,2271.23,3521.46,2257.67Z"/><path class="cls-2" d="M3556.72,2221.38h15.49l1.3,7.49h.51c6.07-5.16,13.56-9.29,21.31-9.29,17.82,0,28.41,14.59,28.41,36.8,0,24.79-14.85,39.13-30.74,39.13-6.32,0-12.39-2.84-17.94-7.88l.51,11.88v21.95h-18.85Zm47.52,35.26c0-13.82-4.39-21.44-14.33-21.44-4.91,0-9.3,2.46-14.34,7.49v31.77c4.65,4,9.3,5.42,13.17,5.42C3597.52,2279.88,3604.24,2272.39,3604.24,2256.64Z"/></svg>